# xmcd CD database file
# Copyright (C) 1993-1997  Ti Kan
#
# Track frame offsets:
#	183
#	19440
#	45940
#	72380
#	91018
#	132328
#	154543
#	174925
#	193955
#	217348
#	239745
#	271910
#	290180
#
# Disc length: 4240 seconds
#
# Revision: 1
# Processed by: cddbd v1.4b41PL1 Copyright (c) Steve Scherf et al.
# Submitted via: xmcd 2.1 PL2
#
DISCID=c6108e0d
DTITLE=Jimmy Dawkins - Kant Sheck Dees Bluze
DYEAR=1900
DGENRE=
TTITLE0=I Ain't Got It
TTITLE1=Rockin D. Blues
TTITLE2=Made The Hard Way
TTITLE3=A Love Like That
TTITLE4=Kant Sheck Dees Bluze
TTITLE5=Gittar Rapp
TTITLE6=Too Bad Baby
TTITLE7=My Man Loves Me
TTITLE8=Get On The Ball
TTITLE9=Wes Cide Bluze
TTITLE10=Beetin Nockin Ringin
TTITLE11=Luv Sumbody
TTITLE12=Gotta Hold On
EXTD=
EXTT0=
EXTT1=
EXTT2=
EXTT3=
EXTT4=
EXTT5=
EXTT6=
EXTT7=
EXTT8=
EXTT9=
EXTT10=
EXTT11=
EXTT12=
PLAYORDER=
